# xmcd
#
# Track frame offsets: 
#        300
#        27207
#        66837
#        88448
#        115915
#        132098
#        163713
#        189705
#        214697
#        250050
#
# Disc length: 3615 seconds
#
# Revision: 0
# Processed by: cddbd v1.5.2PL0 Copyright (c) Steve Scherf et al.
# Submitted via: ExactAudioCopy v1.0b1
#
DISCID=8f0e1b0a
DTITLE=Jimmy Dawkins - Come Back Baby
DYEAR=1995
DGENRE=Chicago Blues
TTITLE0=Come Back Baby
TTITLE1=I Got Wise
TTITLE2=Big Duke's
TTITLE3=Cross Road Blues
TTITLE4=J.D.'s Jam
TTITLE5=Hard Road To Travel
TTITLE6=Nature Ball
TTITLE7=Blue Shawdows Falling
TTITLE8=Ode To Billy Joe
TTITLE9=Pretty Woman
EXTD=
EXTT0=
EXTT1=
EXTT2=
EXTT3=
EXTT4=
EXTT5=
EXTT6=
EXTT7=
EXTT8=
EXTT9=
PLAYORDER=
